<?xml version="1.0" encoding="utf-8"?>
<!-- Generator: Adobe Illustrator 19.2.1, SVG Export Plug-In . SVG Version: 6.00 Build 0)  -->
<svg version="1.1" id="Layer_1" xmlns="http://www.w3.org/2000/svg" xmlns:xlink="http://www.w3.org/1999/xlink" x="0px" y="0px"
	 viewBox="0 0 1400 980" style="enable-background:new 0 0 1400 980;" xml:space="preserve">
<style type="text/css">
	.st0{fill:#2EFFF3;}
	.st1{fill:#26E0ED;}
	.st2{fill:#19C5D1;}
	.st3{fill:#00A79D;}
	.st4{fill:#00DED1;}
	.st5{fill:url(#SVGID_1_);}
	.st6{opacity:0.19;fill:#152747;}
	.st7{fill:#C23542;}
	.st8{fill:#A32E36;}
	.st9{fill:#E83F4F;}
	.st10{fill:#152747;}
	.st11{fill:#1C3966;}
	.st12{fill:#FFFFFF;}
	.st13{fill:#BCBEC0;}
	.st14{fill:#0F1B33;}
	.st15{fill:#FF6976;}
	.st16{fill:#8DC63F;}
	.st17{fill:#7AB330;}
	.st18{fill:url(#SVGID_2_);}
	.st19{fill:url(#SVGID_3_);}
	.st20{fill:#008C84;}
	.st21{fill:url(#SVGID_4_);}
	.st22{fill:url(#SVGID_5_);}
	.st23{fill:url(#SVGID_6_);}
	.st24{fill:#A32545;}
	.st25{fill:#701A30;}
	.st26{fill:#D44267;}
	.st27{fill:#FF6489;}
	.st28{fill:#3CBAF0;}
	.st29{fill:url(#SVGID_7_);}
	.st30{opacity:0.65;}
	.st31{fill:url(#SVGID_8_);}
</style>
<rect class="st0" width="1400" height="980"/>
<g>
	<path class="st1" d="M1400,0h-85.4c-9.1,16-16,33.3-20,51.4c-8.1,36.2-5.9,73.9-9.9,110.8s-15.9,75.5-45,98.7
		c-25.8,20.5-60.2,25.2-92.4,32.1c-32.2,6.9-66.6,18.7-83.7,46.9c-24.1,39.8-3.9,96.1-30.3,134.4c-15.6,22.5-44,33.1-61.1,54.5
		c-22.4,28.1-20.8,67.7-19.5,103.6c1.2,35.9-1,76.6-27.9,100.4c-30.5,27-76.9,19.6-117.3,24.8c-61.9,7.9-118,51.8-140.5,110L698,980
		h702V0z"/>
	<path class="st2" d="M1400,980V465.7c-39,14-82.6,17.4-124.3,22.3c-58.6,6.9-122.1,20.8-158.8,67.1
		c-48.9,61.8-30.1,154.4-65.8,224.6c-23.4,46-70.8,78.8-122.1,84.5c-28.1,3.1-56.4-1.4-84.6-0.4c-28.2,1-58.3,8.7-76.3,30.5
		c5.1,25.8,5.2,57.1-1,85.6H1400z"/>
	<path class="st1" d="M0,0l85.4,0c9.1,16,16,33.3,20,51.4c8.1,36.2,5.9,73.9,9.9,110.8s15.9,75.5,45,98.7
		c25.8,20.5,60.2,25.2,92.4,32.1c32.2,6.9,66.6,18.7,83.7,46.9c24.1,39.8,3.9,96.1,30.3,134.4c15.6,22.5,44,33.1,61.1,54.5
		c22.4,28.1,20.8,67.7,19.5,103.6c-1.2,35.9,1,76.6,27.9,100.4c30.5,27,76.9,19.6,117.3,24.8c61.9,7.9,118,51.8,140.5,110L702,980H0
		L0,0z"/>
	<path class="st2" d="M0,980l0-514.3c39,14,82.6,17.4,124.3,22.3c58.6,6.9,122.1,20.8,158.8,67.1c48.9,61.8,30.1,154.4,65.8,224.6
		c23.4,46,70.8,78.8,122.1,84.5c28.1,3.1,56.4-1.4,84.6-0.4c28.2,1,58.3,8.7,76.3,30.5c-5.1,25.8-5.2,57.1,1,85.6H0z"/>
</g>
<g>
	<polygon class="st10" points="574.9,932 261.7,980 700,980 	"/>
	<polygon class="st10" points="825.1,932 1138.3,980 700,980 	"/>
	<polygon class="st24" points="574.9,932 613.6,980 792,980 830.8,932 830.8,756 574.9,756 	"/>
	<path class="st25" d="M574.9,887.4c128,42.6,222.7-25.4,255.9-54.9V756H574.9V887.4z"/>
	<path class="st14" d="M470.4,476.9c14.7,45.7,48.5,86.8,93.9,102.6c17.2,6,37.1,8,53-0.9c18.8-10.5,27-32.8,33.5-53.3
		c13-40.7,25.4-84.7,12.3-125.4c-12.9-39.9-48.6-68.7-86.8-86.1c-17.4-7.9-36.3-14.1-55.4-12.5C442.3,307.8,453.8,425.4,470.4,476.9
		z"/>
	<g>
		<path class="st26" d="M517.4,357.9v317c0,100.9,81.8,182.6,182.6,182.6h0c100.9,0,182.6-81.8,182.6-182.6v-317H517.4z"/>
		<path class="st24" d="M684.3,856.8l44.5-144.5h-41.7c-24.2,0-41.6-23.3-34.8-46.5l22.1-75l-90-21.3l-67.2,44.5v60.8
			C517.4,770.5,590.8,848.9,684.3,856.8z"/>
	</g>
	<path class="st14" d="M863.6,366.7c-52.4,15.6-105,31.2-159.1,39.2S594.6,414,542,399c-52.5-15.1-101.5-46.4-131.5-92.1
		c-18.6-28.4-33.8-60.9-34.9-94.8c-3.6-109.4,78.8-148.3,120.8-152c61.9-5.5,124.4,10.1,172.9,48.9c30.4,24.4,54.7,56.2,70.6,91.8
		c16.5,37,51.6,62.2,92,65.9c1,0.1,2.1,0.2,3.1,0.3c24.4,2.5,49,10.2,67.9,25.9c18.5,15.3,30.7,37.2,37.4,60.3
		c6.7,23,8.4,47.2,8.7,71.2c0.9,62-6.5,124.1-22,184.1c-23.5,13.3-55.8-1.4-71.7-23.1c-16-21.7-19.9-49.9-21.4-76.8
		C831,459.6,839.1,409.2,863.6,366.7z"/>
	<g>
		<path class="st27" d="M741.5,463.2l68-37.1c25.2-14.3,55.3-16.9,82.5-7.1l90,32.4c26.3,9.5,47.4,29.6,58.1,55.5l95.9,232.2
			l-135.4,63.3l-33.4-70.9c-13.3-28.2-40.3-47.3-71.3-50.6l-56.1-5.9c-35.9-3.8-68.3-23.6-87.9-54l-32.6-50.4L741.5,463.2z"/>
		<path class="st27" d="M658.5,463.2l-68-37.1c-25.2-14.3-55.3-16.9-82.5-7.1l-90,32.4c-26.3,9.5-47.4,29.6-58.1,55.5L264,739.1
			l135.4,63.3l33.4-70.9c13.3-28.2,40.3-47.3,71.3-50.6l56.1-5.9c35.9-3.8,68.3-23.6,87.9-54l32.6-50.4L658.5,463.2z"/>
		<polygon class="st26" points="1000.6,802.4 1136,739.1 1108.8,673.2 984.6,768.5 		"/>
		<polygon class="st26" points="399.4,802.4 264,739.1 291.2,673.2 415.4,768.5 		"/>
	</g>
	<g>
		<path class="st14" d="M773.8,483.6C765.8,467.8,700,469,700,469s-65.8-1.2-73.8,14.7c-7.9,15.8,0.2,110.5,38.4,124
			c4.9-5.8,9.3-10.4,13.2-14.1c12.5-11.9,31.8-11.9,44.3,0c3.9,3.7,8.3,8.3,13.2,14.1C773.5,594.1,781.7,499.5,773.8,483.6z"/>
		<rect x="596.8" y="452.4" class="st14" width="212" height="40.8"/>
		<g>
			<g>
				<g>
					<path class="st14" d="M441,576.9c79.1,73.4,151.3,64.3,151.3,64.3v-98.1V445c0,0-72.2-9.1-151.3,64.3
						C421.4,527.5,421.4,558.7,441,576.9z"/>
					<circle class="st28" cx="459.9" cy="543.1" r="14.1"/>
				</g>
				<g>
					<path class="st14" d="M964.6,576.9c-79.1,73.4-151.3,64.3-151.3,64.3v-98.1V445c0,0,72.2-9.1,151.3,64.3
						C984.2,527.5,984.2,558.7,964.6,576.9z"/>
					<circle class="st28" cx="945.8" cy="543.1" r="14.1"/>
				</g>
			</g>
			<g>
				<circle class="st10" cx="592.3" cy="543.1" r="98.1"/>
				<linearGradient id="SVGID_1_" gradientUnits="userSpaceOnUse" x1="592.3221" y1="447.9487" x2="592.3221" y2="608.2526">
					<stop  offset="0" style="stop-color:#355FB3"/>
					<stop  offset="1" style="stop-color:#73CBF0"/>
				</linearGradient>
				<circle class="st5" cx="592.3" cy="543.1" r="82.2"/>
				<g class="st30">
					<path class="st12" d="M592.3,469c-2,0-3.9,0.1-5.9,0.2l-68,68c-0.2,1.9-0.2,3.9-0.2,5.9c0,16.6,5.4,31.9,14.6,44.2l103.8-103.8
						C624.2,474.4,608.9,469,592.3,469z"/>
					<path class="st12" d="M655.1,503.7c-2.3-3.7-5-7.2-8-10.5L542.4,598c3.2,3,6.7,5.6,10.5,8L655.1,503.7z"/>
					<path class="st12" d="M665.5,555.2c0.3-1.7,0.5-3.5,0.7-5.2l-67,67c1.8-0.2,3.5-0.4,5.2-0.7L665.5,555.2z"/>
				</g>
			</g>
			<g>
				<circle class="st10" cx="808.8" cy="543.1" r="98.1"/>
				<linearGradient id="SVGID_2_" gradientUnits="userSpaceOnUse" x1="808.793" y1="447.9487" x2="808.793" y2="608.2526">
					<stop  offset="0" style="stop-color:#355FB3"/>
					<stop  offset="1" style="stop-color:#73CBF0"/>
				</linearGradient>
				<circle class="st18" cx="808.8" cy="543.1" r="82.2"/>
				<g class="st30">
					<path class="st12" d="M808.8,469c-2,0-3.9,0.1-5.9,0.2l-68,68c-0.2,1.9-0.2,3.9-0.2,5.9c0,16.6,5.4,31.9,14.6,44.2L853,483.6
						C840.7,474.4,825.4,469,808.8,469z"/>
					<path class="st12" d="M871.6,503.7c-2.3-3.7-5-7.2-8-10.5L758.9,598c3.2,3,6.7,5.6,10.5,8L871.6,503.7z"/>
					<path class="st12" d="M882,555.2c0.3-1.7,0.5-3.5,0.7-5.2l-67,67c1.8-0.2,3.5-0.4,5.2-0.7L882,555.2z"/>
				</g>
			</g>
		</g>
	</g>
	<g>
		<g>
			
				<rect x="972" y="749.8" transform="matrix(0.9095 -0.4158 0.4158 0.9095 -224.1638 517.3192)" class="st12" width="207.6" height="47.1"/>
			
				<rect x="220.4" y="749.8" transform="matrix(-0.9095 -0.4158 0.4158 -0.9095 297.5387 1611.5446)" class="st12" width="207.6" height="47.1"/>
		</g>
		<polygon class="st10" points="1305.1,980 1193,734.9 971.6,836.1 1037.3,980 1234.6,980 		"/>
		<polygon class="st10" points="94.9,980 207,734.9 428.4,836.1 362.7,980 165.4,980 		"/>
	</g>
</g>
<g>
	<circle class="st12" cx="1293.6" cy="526" r="5.4"/>
	<circle class="st12" cx="1219.6" cy="592.8" r="5.4"/>
	<circle class="st12" cx="1212.5" cy="701.1" r="7.1"/>
	<circle class="st12" cx="1205.5" cy="376" r="7.1"/>
	<circle class="st12" cx="1102.5" cy="481" r="3.2"/>
	<circle class="st12" cx="1147.5" cy="677.7" r="4.6"/>
	<circle class="st12" cx="1344.6" cy="722.8" r="14.5"/>
	<circle class="st12" cx="1272" cy="807" r="5.3"/>
	<circle class="st12" cx="970.8" cy="900.8" r="5.8"/>
	<circle class="st12" cx="912.7" cy="791" r="3.1"/>
	<circle class="st12" cx="1344.6" cy="625.3" r="4.2"/>
	<circle class="st12" cx="1335.1" cy="916.1" r="9.4"/>
	<circle class="st12" cx="446.7" cy="860" r="11.7"/>
	<circle class="st12" cx="469.3" cy="792" r="3"/>
	<circle class="st12" cx="519.3" cy="890.3" r="10"/>
	<circle class="st12" cx="172.3" cy="640.3" r="11.3"/>
	<circle class="st12" cx="228.3" cy="567.7" r="6.7"/>
	<circle class="st12" cx="72.3" cy="813.7" r="11.3"/>
	<circle class="st12" cx="80.9" cy="557.1" r="14"/>
	<circle class="st12" cx="59.7" cy="361.6" r="3.8"/>
	<circle class="st12" cx="220.5" cy="361.5" r="14.5"/>
	<circle class="st12" cx="162.6" cy="482.4" r="7.6"/>
	<circle class="st12" cx="284.8" cy="485.3" r="7.8"/>
	<circle class="st12" cx="520.9" cy="817.8" r="10.8"/>
	<circle class="st12" cx="888.7" cy="842.2" r="6.1"/>
	<circle class="st12" cx="1118.5" cy="575.4" r="5.9"/>
	<circle class="st12" cx="1107.5" cy="408.1" r="5"/>
	<circle class="st12" cx="965.7" cy="278.5" r="5.9"/>
	<circle class="st12" cx="75.2" cy="888.6" r="8.2"/>
	<circle class="st12" cx="65.6" cy="693.6" r="4.6"/>
	<circle class="st12" cx="243" cy="663.8" r="8"/>
	<circle class="st12" cx="90" cy="432.3" r="6.3"/>
</g>
</svg>
